<?xml version="1.0" standalone="no"?>
<!DOCTYPE svg PUBLIC "-//W3C//DTD SVG 20010904//EN"
 "http://www.w3.org/TR/2001/REC-SVG-20010904/DTD/svg10.dtd">
<svg version="1.0" xmlns="http://www.w3.org/2000/svg"
 width="524.000000pt" height="524.000000pt" viewBox="0 0 524.000000 524.000000"
 preserveAspectRatio="xMidYMid meet">
<metadata>
Created by potrace 1.11, written by Peter Selinger 2001-2013
</metadata>
<g transform="translate(0.000000,524.000000) scale(0.100000,-0.100000)"
fill="#000000" stroke="none">
<path d="M2190 5155 c-401 -56 -788 -216 -1102 -457 -121 -93 -398 -365 -501
-493 -264 -327 -435 -728 -493 -1155 -19 -144 -19 -666 0 -810 55 -408 214
-795 458 -1112 93 -121 365 -398 493 -501 327 -264 728 -435 1155 -493 144
-19 666 -19 810 0 256 35 497 108 725 220 270 134 435 257 691 517 240 245
354 403 481 666 104 215 175 457 209 703 19 144 19 666 0 810 -55 408 -214
795 -458 1112 -93 121 -365 398 -493 501 -327 264 -728 435 -1155 493 -138 18
-685 18 -820 -1z m606 -155 c483 -39 923 -213 1291 -511 100 -81 281 -262 362
-362 197 -243 357 -555 436 -850 109 -401 109 -863 0 -1264 -79 -295 -239
-607 -436 -850 -81 -100 -262 -281 -362 -362 -243 -197 -555 -357 -850 -436
-401 -109 -863 -109 -1264 0 -295 79 -607 239 -850 436 -100 81 -281 262 -362
362 -197 243 -357 555 -436 850 -109 401 -109 863 0 1264 79 295 239 607 436
850 81 100 262 281 362 362 468 379 1061 560 1673 511z"/>
<path d="M913 4093 c-11 -17 -43 -74 -71 -129 -145 -290 -202 -530 -173 -729
16 -103 24 -132 73 -237 l41 -87 -21 -48 c-57 -133 -73 -330 -48 -573 55 -516
249 -932 535 -1148 76 -57 209 -122 250 -122 12 0 33 14 48 31 35 39 62 53
160 83 167 52 372 95 753 160 80 14 159 27 175 30 37 7 508 78 700 106 77 11
156 22 175 25 19 3 148 21 285 41 353 50 381 57 428 108 62 66 98 154 109 266
3 25 4 25 109 26 143 2 193 19 258 90 61 67 75 106 69 200 -7 99 -42 169 -132
259 -80 80 -157 135 -264 189 -79 40 -78 36 -27 101 60 75 70 117 55 226 -12
84 -34 137 -82 199 -30 40 -36 56 -42 120 -9 99 -35 150 -106 209 -83 69 -131
85 -233 78 -45 -3 -97 -12 -115 -19 -27 -11 -43 -10 -100 5 -63 16 -309 131
-418 194 -79 47 -262 129 -361 162 -205 68 -335 86 -574 78 -257 -8 -477 -50
-719 -136 l-85 -30 -53 37 c-29 20 -83 58 -120 84 -37 27 -122 76 -190 110
-111 57 -130 63 -195 66 -70 4 -73 3 -94 -25z m126 -13 c101 -19 297 -125 456
-247 44 -34 75 -51 85 -47 185 77 436 136 675 159 406 39 686 -31 1144 -284
119 -66 261 -129 334 -148 56 -14 65 -14 107 1 69 25 184 24 241 -1 96 -43
150 -125 157 -238 4 -60 9 -75 37 -110 53 -65 75 -120 87 -213 13 -112 3 -149
-63 -230 -29 -34 -49 -65 -46 -69 4 -3 44 -22 89 -42 222 -98 362 -245 388
-407 16 -97 -2 -158 -64 -212 -49 -43 -101 -55 -241 -56 l-120 -1 -11 -80
c-20 -131 -61 -223 -114 -250 -26 -13 -185 -45 -330 -65 -36 -5 -114 -16 -175
-25 -60 -8 -155 -22 -210 -29 -55 -8 -181 -26 -280 -41 -99 -14 -223 -33 -275
-40 -398 -58 -881 -147 -1085 -200 -177 -46 -240 -71 -279 -111 -18 -19 -43
-34 -54 -34 -39 0 -132 41 -207 91 -327 219 -567 845 -542 1414 7 141 19 206
57 301 l21 52 -34 69 c-66 130 -82 201 -82 358 0 153 11 216 66 371 43 122
153 349 175 363 24 13 30 13 93 1z"/>
<path d="M922 3983 c-125 -242 -192 -461 -194 -633 -2 -127 11 -187 67 -305
58 -125 59 -132 30 -204 -53 -130 -72 -302 -55 -499 26 -292 101 -555 226
-792 109 -206 243 -350 390 -420 45 -22 89 -40 97 -40 8 0 30 15 49 33 25 25
58 42 133 65 103 33 310 83 450 108 175 32 481 85 636 109 192 30 173 27 714
105 637 91 681 99 718 138 39 41 65 108 82 218 9 54 20 102 24 107 4 4 34 2
67 -4 32 -6 94 -9 136 -7 63 4 86 10 124 34 67 41 97 100 91 176 -14 161 -165
319 -405 423 -53 22 -97 46 -99 51 -2 6 21 39 52 73 80 90 88 109 83 205 -5
88 -21 130 -89 224 -31 44 -37 59 -32 86 8 50 -21 136 -63 184 -72 85 -179
111 -293 73 -56 -20 -70 -21 -119 -10 -89 18 -173 54 -355 151 -95 50 -217
113 -272 139 -434 203 -879 211 -1425 25 -69 -24 -131 -41 -138 -38 -7 2 -63
39 -123 83 -175 125 -363 219 -438 219 -26 0 -33 -8 -69 -77z m210 -89 c143
-72 299 -183 421 -300 139 -134 197 -229 197 -325 0 -101 -67 -164 -235 -220
-46 -16 -105 -31 -132 -35 -47 -6 -51 -4 -76 25 -49 59 -17 80 134 91 61 5
120 15 136 24 122 62 75 220 -121 409 -168 163 -339 252 -421 221 -37 -15
-100 -225 -111 -371 -16 -221 76 -397 250 -479 42 -20 120 -44 191 -59 66 -14
128 -28 138 -31 25 -8 21 11 -8 30 -14 9 -22 22 -19 30 3 8 40 26 82 41 179
63 278 152 303 273 21 103 -30 236 -142 364 -52 60 -60 82 -31 93 224 91 555
152 777 142 289 -13 477 -74 872 -285 93 -50 209 -105 258 -123 117 -43 118
-43 110 -93 -13 -79 0 -76 -347 -76 -198 0 -308 -4 -308 -10 0 -5 -21 5 -47
23 -58 41 -130 71 -215 93 -87 21 -362 30 -469 15 -177 -25 -368 -93 -402
-142 -88 -124 196 -299 575 -355 210 -31 390 -4 508 77 50 34 120 121 120 149
0 9 -14 43 -30 74 -17 31 -27 56 -22 56 4 0 34 -7 65 -15 126 -33 290 -56 431
-62 128 -5 152 -9 168 -25 42 -42 29 -49 -277 -130 -384 -103 -365 -96 -280
-97 147 -1 438 42 596 89 69 20 108 26 142 23 73 -9 132 5 189 44 61 40 76 37
96 -23 22 -63 11 -140 -32 -230 -20 -43 -47 -89 -58 -101 -39 -41 -110 -23
-129 34 -16 51 -82 78 -129 53 -10 -5 -26 -24 -37 -42 l-20 -33 -138 -14 c-76
-7 -213 -24 -304 -37 -91 -14 -184 -27 -206 -30 -37 -6 -43 -3 -86 40 -39 38
-54 46 -83 46 -53 0 -101 -23 -122 -59 -10 -17 -24 -33 -32 -36 -8 -3 -64 0
-126 5 l-111 11 -36 41 c-47 55 -89 58 -144 10 -29 -26 -43 -32 -68 -28 -18 3
-74 11 -125 17 -92 12 -94 13 -119 50 -29 45 -70 64 -120 56 -45 -8 -81 -41
-89 -83 -8 -41 0 -63 36 -109 l28 -36 -28 -85 c-16 -47 -38 -128 -50 -180 -35
-162 -24 -251 39 -306 l35 -31 120 7 c221 12 718 46 956 66 571 48 835 83 961
126 72 25 77 26 107 10 47 -24 65 -68 70 -168 5 -105 -18 -215 -52 -247 -29
-28 -95 -40 -591 -110 -1203 -171 -1743 -272 -1970 -368 -93 -39 -108 -39
-162 -5 -275 177 -501 713 -504 1195 -1 167 10 242 52 354 38 100 35 135 -21
252 -22 44 -46 104 -55 133 -20 67 -19 205 1 304 26 125 122 373 161 416 22
25 33 23 115 -18z m-7 -244 c-28 -12 -37 -12 -30 0 3 6 16 10 28 9 21 0 21 -1
2 -9z m65 -26 c0 -2 -9 0 -20 6 -11 6 -20 13 -20 16 0 2 9 0 20 -6 11 -6 20
-13 20 -16z m51 -31 c13 -16 12 -17 -3 -4 -10 7 -18 15 -18 17 0 8 8 3 21 -13z
m124 -103 c33 -33 57 -60 54 -60 -2 0 -31 27 -64 60 -33 33 -57 60 -54 60 2 0
31 -27 64 -60z m-304 4 c-5 -16 -10 -21 -10 -12 -1 18 10 51 15 45 2 -1 -1
-16 -5 -33z m-14 -171 c-3 -10 -5 -2 -5 17 0 19 2 27 5 18 2 -10 2 -26 0 -35z
m10 -65 c-3 -7 -5 -2 -5 12 0 14 2 19 5 13 2 -7 2 -19 0 -25z m458 2 c-3 -5
-18 -9 -33 -9 l-27 1 30 8 c17 4 31 8 33 9 2 0 0 -3 -3 -9z m-162 -17 c-7 -2
-19 -2 -25 0 -7 3 -2 5 12 5 14 0 19 -2 13 -5z m-58 -13 c-11 -5 -27 -9 -35
-9 -9 0 -8 4 5 9 11 5 27 9 35 9 9 0 8 -4 -5 -9z m1296 -44 c83 -18 158 -55
193 -96 33 -40 33 -50 -1 -83 -46 -43 -98 -59 -190 -58 -112 0 -122 7 -120 75
2 68 -23 99 -94 116 -63 15 -110 0 -162 -52 -21 -21 -43 -38 -50 -38 -7 0 -28
13 -47 30 l-35 30 23 19 c22 19 97 45 177 61 66 13 235 11 306 -4z m-1448 -85
c-4 -7 -34 21 -45 43 -7 14 -2 11 18 -9 16 -16 28 -32 27 -34z m2832 -535 c18
-12 23 -21 17 -31 -21 -39 -288 -315 -302 -313 -8 2 -51 74 -95 161 -75 149
-78 158 -62 175 24 23 102 31 274 28 113 -3 147 -6 168 -20z m-1715 -10 c74
-9 162 -18 195 -21 33 -3 95 -10 138 -15 43 -5 139 -13 213 -16 104 -6 140
-11 156 -24 20 -16 20 -17 2 -35 -17 -17 -32 -18 -219 -11 -110 3 -279 13
-375 21 -96 8 -202 15 -235 15 -63 0 -85 11 -85 42 0 24 45 69 62 63 7 -2 74
-11 148 -19z m1106 -30 c3 -7 -18 -53 -46 -101 -29 -48 -68 -120 -87 -161 -19
-41 -41 -74 -48 -74 -14 0 -80 138 -106 225 -24 79 -18 85 114 106 131 21 166
22 173 5z m-971 -152 c105 -8 284 -17 400 -18 180 -3 211 -6 219 -20 8 -11 6
-20 -5 -31 -33 -34 -136 -37 -813 -31 -158 2 -191 5 -199 18 -12 18 -2 61 19
82 20 21 128 21 379 0z m677 -171 c21 -19 23 -46 6 -61 -15 -11 -151 -24 -558
-52 -506 -34 -524 -35 -543 -16 -24 24 -22 79 4 102 20 18 41 19 458 17 335
-2 452 0 506 11 96 18 106 18 127 -1z"/>
<path d="M2455 3775 c-49 -17 -102 -76 -111 -122 -4 -19 -2 -52 5 -73 31 -105
136 -149 237 -99 88 42 118 158 61 233 -48 62 -122 86 -192 61z"/>
<path d="M1938 3642 c-16 -9 -35 -31 -43 -48 -25 -53 -19 -82 24 -125 32 -32
46 -39 77 -39 100 0 166 108 111 180 -38 50 -117 65 -169 32z"/>
<path d="M2901 3607 c-32 -19 -50 -54 -51 -97 0 -42 20 -75 61 -96 96 -49 185
84 112 166 -33 36 -86 47 -122 27z"/>
<path d="M3237 3482 c-23 -25 -21 -55 3 -77 18 -17 21 -17 45 -1 30 20 33 56
7 79 -24 22 -35 21 -55 -1z"/>
<path d="M3415 2869 c-61 -35 -73 -103 -26 -150 18 -17 40 -29 56 -29 63 0
114 57 100 113 -14 53 -87 91 -130 66z"/>
<path d="M1094 2844 c-52 -19 -111 -74 -135 -128 -55 -121 7 -282 128 -333 73
-30 179 -10 236 45 52 49 72 99 72 182 0 113 -52 193 -151 230 -63 23 -93 24
-150 4z"/>
<path d="M1520 2442 c-66 -66 -64 -160 5 -221 47 -41 91 -48 148 -23 106 47
116 194 18 259 -24 16 -49 23 -84 23 -44 0 -54 -4 -87 -38z"/>
<path d="M1125 2125 c-53 -53 -16 -155 56 -155 41 0 58 9 74 41 22 41 18 73
-11 108 -33 40 -83 43 -119 6z"/>
<path d="M3842 2016 c-33 -18 -62 -66 -62 -101 0 -67 78 -135 138 -120 14 3
40 21 59 40 27 27 33 41 33 74 0 23 -7 53 -16 67 -33 49 -103 68 -152 40z"/>
<path d="M3320 1968 c-39 -27 -70 -81 -70 -122 0 -86 83 -164 163 -153 135 18
173 197 58 274 -45 30 -107 31 -151 1z"/>
<path d="M2764 1871 c-41 -25 -67 -87 -54 -131 36 -126 220 -107 220 22 0 54
-25 97 -65 114 -45 19 -64 18 -101 -5z"/>
<path d="M1382 1824 c-183 -90 -171 -339 21 -419 86 -36 189 -13 264 60 82 80
94 179 35 275 -42 68 -108 104 -196 108 -60 2 -79 -2 -124 -24z"/>
<path d="M2135 1833 c-102 -26 -140 -171 -64 -249 80 -82 193 -57 235 53 14
36 15 50 5 83 -16 54 -55 97 -99 110 -39 10 -45 11 -77 3z"/>
</g>
</svg>
