<svg version="1" xmlns="http://www.w3.org/2000/svg" width="698.667" height="698.667" viewBox="0 0 524.000000 524.000000"><path d="M219 8.5c-40.1 5.6-78.8 21.6-110.2 45.7-12.1 9.3-39.8 36.5-50.1 49.3C32.3 136.2 15.2 176.3 9.4 219c-1.9 14.4-1.9 66.6 0 81 5.5 40.8 21.4 79.5 45.8 111.2 9.3 12.1 36.5 39.8 49.3 50.1 32.7 26.4 72.8 43.5 115.5 49.3 14.4 1.9 66.6 1.9 81 0 25.6-3.5 49.7-10.8 72.5-22 27-13.4 43.5-25.7 69.1-51.7 24-24.5 35.4-40.3 48.1-66.6 10.4-21.5 17.5-45.7 20.9-70.3 1.9-14.4 1.9-66.6 0-81-5.5-40.8-21.4-79.5-45.8-111.2-9.3-12.1-36.5-39.8-49.3-50.1C383.8 31.3 343.7 14.2 301 8.4c-13.8-1.8-68.5-1.8-82 .1zM279.6 24c48.3 3.9 92.3 21.3 129.1 51.1 10 8.1 28.1 26.2 36.2 36.2 19.7 24.3 35.7 55.5 43.6 85 10.9 40.1 10.9 86.3 0 126.4-7.9 29.5-23.9 60.7-43.6 85-8.1 10-26.2 28.1-36.2 36.2-24.3 19.7-55.5 35.7-85 43.6-40.1 10.9-86.3 10.9-126.4 0-29.5-7.9-60.7-23.9-85-43.6-10-8.1-28.1-26.2-36.2-36.2-19.7-24.3-35.7-55.5-43.6-85-10.9-40.1-10.9-86.3 0-126.4 7.9-29.5 23.9-60.7 43.6-85 8.1-10 26.2-28.1 36.2-36.2 46.8-37.9 106.1-56 167.3-51.1z"/><path d="M91.3 114.7c-1.1 1.7-4.3 7.4-7.1 12.9-14.5 29-20.2 53-17.3 72.9 1.6 10.3 2.4 13.2 7.3 23.7l4.1 8.7-2.1 4.8c-5.7 13.3-7.3 33-4.8 57.3 5.5 51.6 24.9 93.2 53.5 114.8 7.6 5.7 20.9 12.2 25 12.2 1.2 0 3.3-1.4 4.8-3.1 3.5-3.9 6.2-5.3 16-8.3 16.7-5.2 37.2-9.5 75.3-16 8-1.4 15.9-2.7 17.5-3 3.7-.7 50.8-7.8 70-10.6 7.7-1.1 15.6-2.2 17.5-2.5 1.9-.3 14.8-2.1 28.5-4.1 35.3-5 38.1-5.7 42.8-10.8 6.2-6.6 9.8-15.4 10.9-26.6.3-2.5.4-2.5 10.9-2.6 14.3-.2 19.3-1.9 25.8-9 6.1-6.7 7.5-10.6 6.9-20-.7-9.9-4.2-16.9-13.2-25.9-8-8-15.7-13.5-26.4-18.9-7.9-4-7.8-3.6-2.7-10.1 6-7.5 7-11.7 5.5-22.6-1.2-8.4-3.4-13.7-8.2-19.9-3-4-3.6-5.6-4.2-12-.9-9.9-3.5-15-10.6-20.9-8.3-6.9-13.1-8.5-23.3-7.8-4.5.3-9.7 1.2-11.5 1.9-2.7 1.1-4.3 1-10-.5-6.3-1.6-30.9-13.1-41.8-19.4-7.9-4.7-26.2-12.9-36.1-16.2-20.5-6.8-33.5-8.6-57.4-7.8-25.7.8-47.7 5-71.9 13.6l-8.5 3-5.3-3.7c-2.9-2-8.3-5.8-12-8.4-3.7-2.7-12.2-7.6-19-11-11.1-5.7-13-6.3-19.5-6.6-7-.4-7.3-.3-9.4 2.5zm12.6 1.3c10.1 1.9 29.7 12.5 45.6 24.7 4.4 3.4 7.5 5.1 8.5 4.7 18.5-7.7 43.6-13.6 67.5-15.9 40.6-3.9 68.6 3.1 114.4 28.4 11.9 6.6 26.1 12.9 33.4 14.8 5.6 1.4 6.5 1.4 10.7-.1 6.9-2.5 18.4-2.4 24.1.1 9.6 4.3 15 12.5 15.7 23.8.4 6 .9 7.5 3.7 11 5.3 6.5 7.5 12 8.7 21.3 1.3 11.2.3 14.9-6.3 23-2.9 3.4-4.9 6.5-4.6 6.9.4.3 4.4 2.2 8.9 4.2 22.2 9.8 36.2 24.5 38.8 40.7 1.6 9.7-.2 15.8-6.4 21.2-4.9 4.3-10.1 5.5-24.1 5.6l-12 .1-1.1 8c-2 13.1-6.1 22.3-11.4 25-2.6 1.3-18.5 4.5-33 6.5-3.6.5-11.4 1.6-17.5 2.5-6 .8-15.5 2.2-21 2.9-5.5.8-18.1 2.6-28 4.1-9.9 1.4-22.3 3.3-27.5 4-39.8 5.8-88.1 14.7-108.5 20-17.7 4.6-24 7.1-27.9 11.1-1.8 1.9-4.3 3.4-5.4 3.4-3.9 0-13.2-4.1-20.7-9.1-32.7-21.9-56.7-84.5-54.2-141.4.7-14.1 1.9-20.6 5.7-30.1l2.1-5.2-3.4-6.9c-6.6-13-8.2-20.1-8.2-35.8 0-15.3 1.1-21.6 6.6-37.1 4.3-12.2 15.3-34.9 17.5-36.3 2.4-1.3 3-1.3 9.3-.1z"/><path d="M92.2 125.7C79.7 149.9 73 171.8 72.8 189c-.2 12.7 1.1 18.7 6.7 30.5 5.8 12.5 5.9 13.2 3 20.4-5.3 13-7.2 30.2-5.5 49.9 2.6 29.2 10.1 55.5 22.6 79.2 10.9 20.6 24.3 35 39 42 4.5 2.2 8.9 4 9.7 4 .8 0 3-1.5 4.9-3.3 2.5-2.5 5.8-4.2 13.3-6.5 10.3-3.3 31-8.3 45-10.8 17.5-3.2 48.1-8.5 63.6-10.9 19.2-3 17.3-2.7 71.4-10.5 63.7-9.1 68.1-9.9 71.8-13.8 3.9-4.1 6.5-10.8 8.2-21.8.9-5.4 2-10.2 2.4-10.7.4-.4 3.4-.2 6.7.4 3.2.6 9.4.9 13.6.7 6.3-.4 8.6-1 12.4-3.4 6.7-4.1 9.7-10 9.1-17.6-1.4-16.1-16.5-31.9-40.5-42.3-5.3-2.2-9.7-4.6-9.9-5.1-.2-.6 2.1-3.9 5.2-7.3 8-9 8.8-10.9 8.3-20.5-.5-8.8-2.1-13-8.9-22.4-3.1-4.4-3.7-5.9-3.2-8.6.8-5-2.1-13.6-6.3-18.4-7.2-8.5-17.9-11.1-29.3-7.3-5.6 2-7 2.1-11.9 1-8.9-1.8-17.3-5.4-35.5-15.1-9.5-5-21.7-11.3-27.2-13.9-43.4-20.3-87.9-21.1-142.5-2.5-6.9 2.4-13.1 4.1-13.8 3.8-.7-.2-6.3-3.9-12.3-8.3-17.5-12.5-36.3-21.9-43.8-21.9-2.6 0-3.3.8-6.9 7.7zm21 8.9c14.3 7.2 29.9 18.3 42.1 30 13.9 13.4 19.7 22.9 19.7 32.5 0 10.1-6.7 16.4-23.5 22-4.6 1.6-10.5 3.1-13.2 3.5-4.7.6-5.1.4-7.6-2.5-4.9-5.9-1.7-8 13.4-9.1 6.1-.5 12-1.5 13.6-2.4 12.2-6.2 7.5-22-12.1-40.9-16.8-16.3-33.9-25.2-42.1-22.1-3.7 1.5-10 22.5-11.1 37.1-1.6 22.1 7.6 39.7 25 47.9 4.2 2 12 4.4 19.1 5.9 6.6 1.4 12.8 2.8 13.8 3.1 2.5.8 2.1-1.1-.8-3-1.4-.9-2.2-2.2-1.9-3 .3-.8 4-2.6 8.2-4.1 17.9-6.3 27.8-15.2 30.3-27.3 2.1-10.3-3-23.6-14.2-36.4-5.2-6-6-8.2-3.1-9.3 22.4-9.1 55.5-15.2 77.7-14.2 28.9 1.3 47.7 7.4 87.2 28.5 9.3 5 20.9 10.5 25.8 12.3 11.7 4.3 11.8 4.3 11 9.3-1.3 7.9 0 7.6-34.7 7.6-19.8 0-30.8.4-30.8 1 0 .5-2.1-.5-4.7-2.3-5.8-4.1-13-7.1-21.5-9.3-8.7-2.1-36.2-3-46.9-1.5-17.7 2.5-36.8 9.3-40.2 14.2-8.8 12.4 19.6 29.9 57.5 35.5 21 3.1 39 .4 50.8-7.7 5-3.4 12-12.1 12-14.9 0-.9-1.4-4.3-3-7.4-1.7-3.1-2.7-5.6-2.2-5.6.4 0 3.4.7 6.5 1.5 12.6 3.3 29 5.6 43.1 6.2 12.8.5 15.2.9 16.8 2.5 4.2 4.2 2.9 4.9-27.7 13-38.4 10.3-36.5 9.6-28 9.7 14.7.1 43.8-4.2 59.6-8.9 6.9-2 10.8-2.6 14.2-2.3 7.3.9 13.2-.5 18.9-4.4 6.1-4 7.6-3.7 9.6 2.3 2.2 6.3 1.1 14-3.2 23-2 4.3-4.7 8.9-5.8 10.1-3.9 4.1-11 2.3-12.9-3.4-1.6-5.1-8.2-7.8-12.9-5.3-1 .5-2.6 2.4-3.7 4.2l-2 3.3-13.8 1.4c-7.6.7-21.3 2.4-30.4 3.7-9.1 1.4-18.4 2.7-20.6 3-3.7.6-4.3.3-8.6-4-3.9-3.8-5.4-4.6-8.3-4.6-5.3 0-10.1 2.3-12.2 5.9-1 1.7-2.4 3.3-3.2 3.6-.8.3-6.4 0-12.6-.5l-11.1-1.1-3.6-4.1c-4.7-5.5-8.9-5.8-14.4-1-2.9 2.6-4.3 3.2-6.8 2.8-1.8-.3-7.4-1.1-12.5-1.7-9.2-1.2-9.4-1.3-11.9-5-2.9-4.5-7-6.4-12-5.6-4.5.8-8.1 4.1-8.9 8.3-.8 4.1 0 6.3 3.6 10.9l2.8 3.6-2.8 8.5c-1.6 4.7-3.8 12.8-5 18-3.5 16.2-2.4 25.1 3.9 30.6l3.5 3.1 12-.7c22.1-1.2 71.8-4.6 95.6-6.6 57.1-4.8 83.5-8.3 96.1-12.6 7.2-2.5 7.7-2.6 10.7-1 4.7 2.4 6.5 6.8 7 16.8.5 10.5-1.8 21.5-5.2 24.7-2.9 2.8-9.5 4-59.1 11-120.3 17.1-174.3 27.2-197 36.8-9.3 3.9-10.8 3.9-16.2.5-27.5-17.7-50.1-71.3-50.4-119.5-.1-16.7 1-24.2 5.2-35.4 3.8-10 3.5-13.5-2.1-25.2-2.2-4.4-4.6-10.4-5.5-13.3-2-6.7-1.9-20.5.1-30.4 2.6-12.5 12.2-37.3 16.1-41.6 2.2-2.5 3.3-2.3 11.5 1.8zm-.7 24.4c-2.8 1.2-3.7 1.2-3 0 .3-.6 1.6-1 2.8-.9 2.1 0 2.1.1.2.9zm6.5 2.6c0 .2-.9 0-2-.6s-2-1.3-2-1.6c0-.2.9 0 2 .6s2 1.3 2 1.6zm5.1 3.1c1.3 1.6 1.2 1.7-.3.4-1-.7-1.8-1.5-1.8-1.7 0-.8.8-.3 2.1 1.3zm12.4 10.3c3.3 3.3 5.7 6 5.4 6-.2 0-3.1-2.7-6.4-6-3.3-3.3-5.7-6-5.4-6 .2 0 3.1 2.7 6.4 6zm-30.4-.4c-.5 1.6-1 2.1-1 1.2-.1-1.8 1-5.1 1.5-4.5.2.1-.1 1.6-.5 3.3zm-1.4 17.1c-.3 1-.5.2-.5-1.7s.2-2.7.5-1.8c.2 1 .2 2.6 0 3.5zm1 6.5c-.3.7-.5.2-.5-1.2s.2-1.9.5-1.3c.2.7.2 1.9 0 2.5zm45.8-.2c-.3.5-1.8.9-3.3.9l-2.7-.1 3-.8c1.7-.4 3.1-.8 3.3-.9.2 0 0 .3-.3.9zm-16.2 1.7c-.7.2-1.9.2-2.5 0-.7-.3-.2-.5 1.2-.5s1.9.2 1.3.5zm-5.8 1.3c-1.1.5-2.7.9-3.5.9-.9 0-.8-.4.5-.9 1.1-.5 2.7-.9 3.5-.9.9 0 .8.4-.5.9zm129.6 4.4c8.3 1.8 15.8 5.5 19.3 9.6 3.3 4 3.3 5-.1 8.3-4.6 4.3-9.8 5.9-19 5.8-11.2 0-12.2-.7-12-7.5.2-6.8-2.3-9.9-9.4-11.6-6.3-1.5-11 0-16.2 5.2-2.1 2.1-4.3 3.8-5 3.8-.7 0-2.8-1.3-4.7-3l-3.5-3 2.3-1.9c2.2-1.9 9.7-4.5 17.7-6.1 6.6-1.3 23.5-1.1 30.6.4zm-144.8 8.5c-.4.7-3.4-2.1-4.5-4.3-.7-1.4-.2-1.1 1.8.9 1.6 1.6 2.8 3.2 2.7 3.4zm283.2 53.5c1.8 1.2 2.3 2.1 1.7 3.1-2.1 3.9-28.8 31.5-30.2 31.3-.8-.2-5.1-7.4-9.5-16.1-7.5-14.9-7.8-15.8-6.2-17.5 2.4-2.3 10.2-3.1 27.4-2.8 11.3.3 14.7.6 16.8 2zm-171.5 1c7.4.9 16.2 1.8 19.5 2.1 3.3.3 9.5 1 13.8 1.5 4.3.5 13.9 1.3 21.3 1.6 10.4.6 14 1.1 15.6 2.4 2 1.6 2 1.7.2 3.5-1.7 1.7-3.2 1.8-21.9 1.1-11-.3-27.9-1.3-37.5-2.1-9.6-.8-20.2-1.5-23.5-1.5-6.3 0-8.5-1.1-8.5-4.2 0-2.4 4.5-6.9 6.2-6.3.7.2 7.4 1.1 14.8 1.9zm110.6 3c.3.7-1.8 5.3-4.6 10.1-2.9 4.8-6.8 12-8.7 16.1-1.9 4.1-4.1 7.4-4.8 7.4-1.4 0-8-13.8-10.6-22.5-2.4-7.9-1.8-8.5 11.4-10.6 13.1-2.1 16.6-2.2 17.3-.5zm-97.1 15.2c10.5.8 28.4 1.7 40 1.8 18 .3 21.1.6 21.9 2 .8 1.1.6 2-.5 3.1-3.3 3.4-13.6 3.7-81.3 3.1-15.8-.2-19.1-.5-19.9-1.8-1.2-1.8-.2-6.1 1.9-8.2 2-2.1 12.8-2.1 37.9 0zm67.7 17.1c2.1 1.9 2.3 4.6.6 6.1-1.5 1.1-15.1 2.4-55.8 5.2-50.6 3.4-52.4 3.5-54.3 1.6-2.4-2.4-2.2-7.9.4-10.2 2-1.8 4.1-1.9 45.8-1.7 33.5.2 45.2 0 50.6-1.1 9.6-1.8 10.6-1.8 12.7.1z"/><path d="M245.5 146.5c-4.9 1.7-10.2 7.6-11.1 12.2-.4 1.9-.2 5.2.5 7.3 3.1 10.5 13.6 14.9 23.7 9.9 8.8-4.2 11.8-15.8 6.1-23.3-4.8-6.2-12.2-8.6-19.2-6.1zM193.8 159.8c-1.6.9-3.5 3.1-4.3 4.8-2.5 5.3-1.9 8.2 2.4 12.5 3.2 3.2 4.6 3.9 7.7 3.9 10 0 16.6-10.8 11.1-18-3.8-5-11.7-6.5-16.9-3.2zM290.1 163.3c-3.2 1.9-5 5.4-5.1 9.7 0 4.2 2 7.5 6.1 9.6 9.6 4.9 18.5-8.4 11.2-16.6-3.3-3.6-8.6-4.7-12.2-2.7zM323.7 175.8c-2.3 2.5-2.1 5.5.3 7.7 1.8 1.7 2.1 1.7 4.5.1 3-2 3.3-5.6.7-7.9-2.4-2.2-3.5-2.1-5.5.1zM341.5 237.1c-6.1 3.5-7.3 10.3-2.6 15 1.8 1.7 4 2.9 5.6 2.9 6.3 0 11.4-5.7 10-11.3-1.4-5.3-8.7-9.1-13-6.6zM109.4 239.6c-5.2 1.9-11.1 7.4-13.5 12.8-5.5 12.1.7 28.2 12.8 33.3 7.3 3 17.9 1 23.6-4.5 5.2-4.9 7.2-9.9 7.2-18.2 0-11.3-5.2-19.3-15.1-23-6.3-2.3-9.3-2.4-15-.4zM152 279.8c-6.6 6.6-6.4 16 .5 22.1 4.7 4.1 9.1 4.8 14.8 2.3 10.6-4.7 11.6-19.4 1.8-25.9-2.4-1.6-4.9-2.3-8.4-2.3-4.4 0-5.4.4-8.7 3.8zM112.5 311.5c-5.3 5.3-1.6 15.5 5.6 15.5 4.1 0 5.8-.9 7.4-4.1 2.2-4.1 1.8-7.3-1.1-10.8-3.3-4-8.3-4.3-11.9-.6zM384.2 322.4c-3.3 1.8-6.2 6.6-6.2 10.1 0 6.7 7.8 13.5 13.8 12 1.4-.3 4-2.1 5.9-4 2.7-2.7 3.3-4.1 3.3-7.4 0-2.3-.7-5.3-1.6-6.7-3.3-4.9-10.3-6.8-15.2-4zM332 327.2c-3.9 2.7-7 8.1-7 12.2 0 8.6 8.3 16.4 16.3 15.3 13.5-1.8 17.3-19.7 5.8-27.4-4.5-3-10.7-3.1-15.1-.1zM276.4 336.9c-4.1 2.5-6.7 8.7-5.4 13.1 3.6 12.6 22 10.7 22-2.2 0-5.4-2.5-9.7-6.5-11.4-4.5-1.9-6.4-1.8-10.1.5zM138.2 341.6c-18.3 9-17.1 33.9 2.1 41.9 8.6 3.6 18.9 1.3 26.4-6 8.2-8 9.4-17.9 3.5-27.5-4.2-6.8-10.8-10.4-19.6-10.8-6-.2-7.9.2-12.4 2.4zM213.5 340.7c-10.2 2.6-14 17.1-6.4 24.9 8 8.2 19.3 5.7 23.5-5.3 1.4-3.6 1.5-5 .5-8.3-1.6-5.4-5.5-9.7-9.9-11-3.9-1-4.5-1.1-7.7-.3z"/></svg>